<?xml version="1.0" encoding="utf-8"?>
<!-- Generator: Adobe Illustrator 26.2.1, SVG Export Plug-In . SVG Version: 6.00 Build 0)  -->
<svg version="1.1" id="Layer_1" xmlns="http://www.w3.org/2000/svg" xmlns:xlink="http://www.w3.org/1999/xlink" x="0px" y="0px"
	 viewBox="0 0 32 32" style="enable-background:new 0 0 32 32;" xml:space="preserve">
<style type="text/css">
	.st0{fill:#F9BC60;}
	.st1{fill:none;stroke:#F9BC60;stroke-miterlimit:10;}
</style>
<path class="st0" d="M28,29H4c-0.6,0-1-0.4-1-1s0.4-1,1-1h24c0.6,0,1,0.4,1,1S28.6,29,28,29z"/>
<path class="st1" d="M19,9.4C12.6,7.7,6,11.6,4.4,18C4.1,19,4,20,4,21v3c0,0.6,0.4,1,1,1h22c0.6,0,1-0.4,1-1v-3
	C28,15.5,24.3,10.8,19,9.4z"/>
<path class="st1" d="M19,7.3V5.9c0-1.7-1.3-3-3-3s-3,1.3-3,3v1.4C15,6.8,17,6.8,19,7.3z"/>
</svg>
