<?xml version="1.0" encoding="utf-8"?>
<!-- Generator: Adobe Illustrator 26.2.1, SVG Export Plug-In . SVG Version: 6.00 Build 0)  -->
<svg version="1.1" id="Layer_1" xmlns="http://www.w3.org/2000/svg" xmlns:xlink="http://www.w3.org/1999/xlink" x="0px" y="0px"
	 viewBox="0 0 92 92" style="enable-background:new 0 0 92 92;" xml:space="preserve">
<style type="text/css">
	.st0{fill:#F9BC60;}
</style>
<path class="st0" d="M91.8,27.3L81.1,61c-0.8,2.4-2.9,4-5.4,4H34.4c-2.4,0-4.7-1.5-5.5-3.7L13.1,19H4c-2.2,0-4-1.8-4-4s1.8-4,4-4
	h11.9c1.7,0,3.2,1.1,3.8,2.7L36,57h38l8.5-27H35.4c-2.2,0-4-1.8-4-4s1.8-4,4-4H88c1.3,0,2.5,0.7,3.2,1.7
	C92,24.7,92.2,26.1,91.8,27.3z M36.4,70.3c-1.7,0-3.4,0.7-4.6,1.9c-1.2,1.2-1.9,2.9-1.9,4.6s0.7,3.4,1.9,4.6s2.9,1.9,4.6,1.9
	s3.4-0.7,4.6-1.9c1.2-1.2,1.9-2.9,1.9-4.6s-0.7-3.4-1.9-4.6S38.1,70.3,36.4,70.3z M72.3,70.3c-1.7,0-3.4,0.7-4.6,1.9
	s-1.9,2.9-1.9,4.6s0.7,3.4,1.9,4.6c1.2,1.2,2.9,1.9,4.6,1.9s3.4-0.7,4.6-1.9c1.2-1.2,1.9-2.9,1.9-4.6s-0.7-3.4-1.9-4.6
	S74,70.3,72.3,70.3z"/>
</svg>
