<?xml version="1.0" encoding="utf-8"?>
<!-- Generator: Adobe Illustrator 26.2.1, SVG Export Plug-In . SVG Version: 6.00 Build 0)  -->
<svg version="1.1" id="Layer_1" xmlns="http://www.w3.org/2000/svg" xmlns:xlink="http://www.w3.org/1999/xlink" x="0px" y="0px"
	 viewBox="0 0 32 32" style="enable-background:new 0 0 32 32;" xml:space="preserve">
<style type="text/css">
	.st0{fill:#F9BC60;}
</style>
<g>
	<path class="st0" d="M29.9,10.9c-0.4-2.6-2.2-4.7-4.7-5.5C24.1,5,23,4.9,21.8,5.1c-2.1-3.2-6.5-4.1-9.7-1.9
		c-0.8,0.5-1.4,1.2-1.9,1.9C9.1,4.9,7.9,5,6.8,5.4c-3.7,1.2-5.7,5.2-4.4,8.8c0.4,1.2,1.1,2.3,2.1,3.1c1,0.9,1.6,2.2,1.6,3.6V27
		c0,1.7,1.3,3,3,3h14c1.7,0,3-1.3,3-3v-6.1c0-1.4,0.5-2.7,1.6-3.6C29.4,15.7,30.3,13.3,29.9,10.9z M23,28H9c-0.5,0-1-0.4-1-1v-2h16
		v2C24,27.6,23.5,28,23,28z M26.3,15.8C24.8,17.1,24,19,24,20.9V23H8v-2.1c0-2-0.8-3.8-2.3-5.1c-2.1-1.8-2.3-4.9-0.5-7
		c1.3-1.5,3.3-2.1,5.2-1.5c0.5,0.1,0.9-0.1,1.2-0.5c1.3-2.5,4.3-3.4,6.7-2.1C19.2,5,20,5.8,20.4,6.7c0.2,0.4,0.7,0.6,1.2,0.5
		c1-0.3,2-0.3,3,0.1c2.6,0.9,4,3.7,3.2,6.3C27.5,14.4,27,15.2,26.3,15.8L26.3,15.8z"/>
	<path class="st0" d="M16,20c-0.6,0-1-0.4-1-1v-7c0-0.6,0.4-1,1-1c0.6,0,1,0.4,1,1v7C17,19.6,16.6,20,16,20z M20,20
		c-0.1,0-0.1,0-0.2,0c-0.5-0.1-0.9-0.6-0.8-1.2c0,0,0,0,0,0l1-5c0.1-0.5,0.7-0.9,1.2-0.7c0.5,0.1,0.8,0.6,0.8,1.1l-1,5
		C20.9,19.7,20.5,20,20,20z M12,20c-0.5,0-0.9-0.3-1-0.8l-1-5c-0.1-0.5,0.2-1.1,0.7-1.2c0.5-0.1,1.1,0.2,1.2,0.7c0,0,0,0,0,0.1l1,5
		c0.1,0.5-0.2,1.1-0.8,1.2C12.1,20,12.1,20,12,20z"/>
</g>
</svg>
